<?xml version="1.0" encoding="UTF-8" standalone="no"?>
<svg
   height="16px"
   viewBox="0 0 16 16"
   width="16px"
   version="1.1"
   id="svg2"
   sodipodi:docname="hs-battery-level-100-charging.svg"
   inkscape:version="1.4 (e7c3feb100, 2024-10-09)"
   xmlns:inkscape="http://www.inkscape.org/namespaces/inkscape"
   xmlns:sodipodi="http://sodipodi.sourceforge.net/DTD/sodipodi-0.dtd"
   xmlns="http://www.w3.org/2000/svg"
   xmlns:svg="http://www.w3.org/2000/svg">
  <defs
     id="defs2" />
  <sodipodi:namedview
     id="namedview2"
     pagecolor="#ffffff"
     bordercolor="#000000"
     borderopacity="0.25"
     inkscape:showpageshadow="2"
     inkscape:pageopacity="0.0"
     inkscape:pagecheckerboard="0"
     inkscape:deskcolor="#d1d1d1"
     inkscape:zoom="40.1875"
     inkscape:cx="7.9875583"
     inkscape:cy="8"
     inkscape:window-width="1291"
     inkscape:window-height="822"
     inkscape:window-x="0"
     inkscape:window-y="0"
     inkscape:window-maximized="1"
     inkscape:current-layer="svg2" />
  <g
     fill="#2e3434"
     id="g2">
    <path
       d="m 7 0 c -1 0 -1 1 -1 1 v 1 h -1 s -0.707031 -0.015625 -1.449219 0.355469 c -0.738281 0.371093 -1.550781 1.3125 -1.550781 2.644531 v 8 s -0.015625 0.707031 0.355469 1.445312 c 0.371093 0.742188 1.3125 1.554688 2.644531 1.554688 h 5 v -2 h -5 c -0.554688 0 -1 -0.445312 -1 -1 v -8 c 0 -0.554688 0.445312 -1 1 -1 h 6 c 0.554688 0 1 0.445312 1 1 v 2 h 2 v -2 c 0 -1.332031 -0.8125 -2.273438 -1.550781 -2.644531 c -0.742188 -0.371094 -1.449219 -0.355469 -1.449219 -0.355469 h -1 v -1 c 0 -1 -1 -1 -1 -1 z m -2 5 v 8 h 3 v -1 c 0 -0.53125 0.210938 -1.039062 0.585938 -1.414062 l 2.414062 -2.414063 v -3.171875 z m 0 0"
       id="path1"
       style="fill:#f9f9f9" />
    <path
       d="m 13 8 v 0.007812 c -0.265625 -0.003906 -0.519531 0.101563 -0.707031 0.285157 l -3 3 c -0.1875 0.1875 -0.292969 0.441406 -0.292969 0.707031 v 1 h 3.132812 l -0.964843 1.445312 c -0.109375 0.164063 -0.164063 0.359376 -0.160157 0.554688 h -0.007812 v 1 h 1 v -0.003906 c 0.265625 0 0.519531 -0.101563 0.707031 -0.289063 l 3 -3 c 0.1875 -0.1875 0.289063 -0.441406 0.289063 -0.707031 h 0.003906 v -1 h -3.132812 l 0.964843 -1.445312 c 0.109375 -0.164063 0.167969 -0.359376 0.167969 -0.554688 v -1 z m 0 0"
       id="path2"
       style="fill:#f9f9f9" />
  </g>
</svg>
