<?xml version="1.0" encoding="UTF-8" standalone="no"?>
<svg
   height="16px"
   viewBox="0 0 16 16"
   width="16px"
   version="1.1"
   id="svg1"
   sodipodi:docname="hs-calendar.svg"
   inkscape:version="1.4 (e7c3feb100, 2024-10-09)"
   xmlns:inkscape="http://www.inkscape.org/namespaces/inkscape"
   xmlns:sodipodi="http://sodipodi.sourceforge.net/DTD/sodipodi-0.dtd"
   xmlns="http://www.w3.org/2000/svg"
   xmlns:svg="http://www.w3.org/2000/svg">
  <defs
     id="defs1" />
  <sodipodi:namedview
     id="namedview1"
     pagecolor="#ffffff"
     bordercolor="#000000"
     borderopacity="0.25"
     inkscape:showpageshadow="2"
     inkscape:pageopacity="0.0"
     inkscape:pagecheckerboard="0"
     inkscape:deskcolor="#d1d1d1"
     inkscape:zoom="40.1875"
     inkscape:cx="7.9875583"
     inkscape:cy="8"
     inkscape:window-width="1291"
     inkscape:window-height="822"
     inkscape:window-x="0"
     inkscape:window-y="0"
     inkscape:window-maximized="1"
     inkscape:current-layer="svg1" />
  <path
     d="m 4 1 v 1 c -1.644531 0 -3 1.355469 -3 3 v 7 c 0 1.644531 1.355469 3 3 3 h 8 c 1.644531 0 3 -1.355469 3 -3 v -7 c 0 -1.644531 -1.355469 -3 -3 -3 v -1 h -2 v 1 h -4 v -1 z m 0 5 h 8 c 0.554688 0 1 0.445312 1 1 v 5 c 0 0.570312 -0.441406 0.886719 -1 1 h -8 c -0.570312 0 -1 -0.429688 -1 -1 v -5 c 0 -0.554688 0.445312 -1 1 -1 z m 3 1 v 1 h 2 v -1 z m 3 0 v 1 h 2 v -1 z m -6 2 v 1 h 2 v -1 z m 3 0 v 1 h 2 v -1 z m 3 0 v 1 h 2 v -1 z m -6 2 v 1 h 2 v -1 z m 3 0 v 1 h 2 v -1 z m 3 0 v 1 h 2 v -1 z m 0 0"
     fill="#2e3434"
     id="path1"
     style="fill:#f9f9f9" />
</svg>
