<?xml version="1.0" encoding="UTF-8" standalone="no"?>
<svg
   height="16px"
   viewBox="0 0 16 16"
   width="16px"
   version="1.1"
   id="svg1"
   sodipodi:docname="hs-microphone.svg"
   inkscape:version="1.4 (e7c3feb100, 2024-10-09)"
   xmlns:inkscape="http://www.inkscape.org/namespaces/inkscape"
   xmlns:sodipodi="http://sodipodi.sourceforge.net/DTD/sodipodi-0.dtd"
   xmlns="http://www.w3.org/2000/svg"
   xmlns:svg="http://www.w3.org/2000/svg">
  <defs
     id="defs1" />
  <sodipodi:namedview
     id="namedview1"
     pagecolor="#ffffff"
     bordercolor="#000000"
     borderopacity="0.25"
     inkscape:showpageshadow="2"
     inkscape:pageopacity="0.0"
     inkscape:pagecheckerboard="0"
     inkscape:deskcolor="#d1d1d1"
     inkscape:zoom="40.1875"
     inkscape:cx="7.9875583"
     inkscape:cy="8"
     inkscape:window-width="1291"
     inkscape:window-height="822"
     inkscape:window-x="0"
     inkscape:window-y="0"
     inkscape:window-maximized="1"
     inkscape:current-layer="svg1" />
  <path
     d="m 8 1 c -1.660156 0 -3 1.339844 -3 3 v 4 c 0 1.660156 1.339844 3 3 3 s 3 -1.339844 3 -3 v -4 c 0 -1.660156 -1.339844 -3 -3 -3 z m -6 6 v 1.011719 c 0 2.964843 2.164062 5.429687 5 5.90625 v 2.082031 h 2 v -2.082031 c 2.835938 -0.476563 5 -2.941407 5 -5.90625 v -1.011719 h -1.5 v 1.011719 c 0 2.5 -1.992188 4.488281 -4.5 4.488281 s -4.5 -1.988281 -4.5 -4.488281 v -1.011719 z m 0 0"
     fill="#2e3436"
     id="path1"
     style="fill:#f9f9f9" />
</svg>
