<?xml version="1.0" encoding="UTF-8" standalone="no"?>
<svg
   height="16.019531px"
   viewBox="0 0 16 16.019531"
   width="16px"
   version="1.1"
   id="svg2"
   sodipodi:docname="hs-network-connected.svg"
   inkscape:version="1.4 (e7c3feb100, 2024-10-09)"
   xmlns:inkscape="http://www.inkscape.org/namespaces/inkscape"
   xmlns:sodipodi="http://sodipodi.sourceforge.net/DTD/sodipodi-0.dtd"
   xmlns="http://www.w3.org/2000/svg"
   xmlns:svg="http://www.w3.org/2000/svg">
  <defs
     id="defs2" />
  <sodipodi:namedview
     id="namedview2"
     pagecolor="#ffffff"
     bordercolor="#000000"
     borderopacity="0.25"
     inkscape:showpageshadow="2"
     inkscape:pageopacity="0.0"
     inkscape:pagecheckerboard="0"
     inkscape:deskcolor="#d1d1d1"
     inkscape:zoom="40.637893"
     inkscape:cx="7.9728543"
     inkscape:cy="8.0097657"
     inkscape:window-width="941"
     inkscape:window-height="946"
     inkscape:window-x="0"
     inkscape:window-y="0"
     inkscape:window-maximized="1"
     inkscape:current-layer="svg2" />
  <path
     style="fill:#f9f9f9;fill-opacity:1;stroke-width:0.0246076"
     d="M 13.767938,7.9759588 C 13.574227,7.9226297 13.465357,7.855499 13.26482,7.6657286 13.157282,7.5639645 11.868868,6.2982303 10.401678,4.8529861 8.3987257,2.8799935 7.7039348,2.2100041 7.6131553,2.1640026 7.239237,1.9745238 6.6331192,1.9916533 6.3024067,2.2010456 6.2607658,2.2274108 5.5912234,2.8724489 4.8145348,3.6344638 l -1.4121611,1.3854815 0.4150646,0.012663 c 0.3999639,0.012203 0.4209261,0.015428 0.5761795,0.088652 0.2776684,0.1309605 0.4441761,0.3149546 0.5385545,0.5951128 0.1573679,0.4671391 -0.074526,0.9906276 -0.5343146,1.206191 l -0.1407472,0.065987 -1.7080613,0.00681 C 1.0200223,7.0014486 0.82786437,6.9979248 0.71578482,6.9617379 0.43873505,6.8722869 0.23165298,6.6873061 0.10183124,6.4133093 L 0.02460757,6.250324 0.0170659,4.5893127 C 0.00859276,2.7231515 0.00629928,2.7518452 0.18617993,2.4735347 0.36760466,2.1928354 0.64760121,2.0467264 1.0089106,2.0442139 c 0.1983047,-0.00138 0.2383192,0.00643 0.382583,0.074686 0.273332,0.1293175 0.448184,0.3204815 0.5416697,0.5922023 0.039408,0.1145424 0.047747,0.2068621 0.047747,0.5286465 0,0.214428 0.00694,0.3898689 0.015431,0.3898689 0.00849,0 0.4427689,-0.4180212 0.9650711,-0.928936 C 3.4837138,2.1897666 4.1392143,1.5489161 4.4180797,1.2765692 4.9732339,0.73439161 5.2060474,0.54734651 5.5388056,0.37616483 6.0405481,0.11805208 6.4249189,0.02615555 7.0008551,0.0266138 c 0.350888,2.792e-4 0.443063,0.0090462 0.6787704,0.06455966 0.4415,0.10398143 0.8226703,0.2799411 1.1915925,0.55007479 0.087869,0.0643399 0.4199871,0.37345335 0.73804,0.68691895 0.3180529,0.3134656 1.508444,1.4811925 2.645314,2.5949486 2.614012,2.5608662 2.547851,2.4939029 2.627563,2.6594105 0.273178,0.5672004 -0.03794,1.2285428 -0.65527,1.3929135 -0.154047,0.041017 -0.311178,0.041194 -0.458927,5.19e-4 z"
     id="path4" />
  <path
     style="fill:#f9f9f9;fill-opacity:1;stroke-width:0.0246076"
     d="M 8.7602967,15.966127 C 8.1672637,15.916601 7.5409532,15.688962 7.1101764,15.366373 6.9988394,15.282997 5.6901727,14.018653 4.0566212,12.416238 0.76936553,9.1916372 1.0335181,9.488464 1.0335181,9.0191936 c 0,-0.2280941 0.00764,-0.2749995 0.064228,-0.3942386 0.2410834,-0.5080163 0.8201304,-0.7267781 1.3131065,-0.4960867 0.1453559,0.06802 0.240188,0.1506677 0.7600915,0.6624303 0.3267083,0.3215927 1.594525,1.5701284 2.8173704,2.7745244 1.2228452,1.204396 2.2692823,2.21849 2.3254159,2.253541 0.1474015,0.09204 0.3685009,0.169067 0.5353734,0.186509 l 0.1449652,0.01515 v 0.980797 0.980798 l -0.067671,-0.0041 c -0.037219,-0.0023 -0.1119645,-0.0078 -0.1661011,-0.01236 z"
     id="path5" />
  <path
     d="m 11.729411,7.7047091 v 0.00781 c -0.265625,-0.00391 -0.519531,0.101563 -0.707031,0.285157 l -3,2.9999999 c -0.1875,0.187502 -0.292969,0.441408 -0.292969,0.707033 v 1 h 3.132812 l -0.9648433,1.445312 c -0.105469,0.164063 -0.164063,0.359376 -0.160157,0.554688 h -0.0078 v 1 h 1.0000003 v -0.0039 c 0.265625,0 0.519531,-0.101563 0.707031,-0.289063 l 3,-3 c 0.187488,-0.187506 0.289051,-0.441412 0.289051,-0.707037 h 0.0039 v -1 h -3.1289 l 0.960937,-1.4453119 c 0.109375,-0.164063 0.167969,-0.359376 0.167969,-0.554688 v -1 z"
     fill="#2e3434"
     id="path2"
     sodipodi:nodetypes="ccccsccccccccsccccccscc"
     style="fill:#33d17a;fill-opacity:1" />
</svg>
