<?xml version="1.0" encoding="UTF-8" standalone="no"?>
<svg
   height="16"
   viewBox="0 0 16 16"
   width="16"
   version="1.1"
   id="svg1"
   sodipodi:docname="hs-volume-symbolic.svg"
   inkscape:version="1.4 (e7c3feb100, 2024-10-09)"
   xmlns:inkscape="http://www.inkscape.org/namespaces/inkscape"
   xmlns:sodipodi="http://sodipodi.sourceforge.net/DTD/sodipodi-0.dtd"
   xmlns="http://www.w3.org/2000/svg"
   xmlns:svg="http://www.w3.org/2000/svg">
  <defs
     id="defs1" />
  <sodipodi:namedview
     id="namedview1"
     pagecolor="#ffffff"
     bordercolor="#000000"
     borderopacity="0.25"
     inkscape:showpageshadow="2"
     inkscape:pageopacity="0.0"
     inkscape:pagecheckerboard="0"
     inkscape:deskcolor="#d1d1d1"
     showgrid="false"
     inkscape:zoom="38.1875"
     inkscape:cx="8.091653"
     inkscape:cy="8"
     inkscape:window-width="1345"
     inkscape:window-height="938"
     inkscape:window-x="0"
     inkscape:window-y="0"
     inkscape:window-maximized="1"
     inkscape:current-layer="svg1" />
  <path
     d="M 7,1.007812 C 6.703125,1.003906 6.421875,1.132812 6.230469,1.359375 L 3,5 H 2 C 0.90625,5 0,5.84375 0,7 v 2 c 0,1.089844 0.910156,2 2,2 h 1 l 3.230469,3.640625 C 6.441406,14.894531 6.722656,15.003906 7,15 Z m 6.460938,0.960938 c -0.191407,-0.00391 -0.386719,0.054688 -0.558594,0.167969 -0.457032,0.3125 -0.578125,0.933593 -0.269532,1.390625 1.824219,2.707031 1.824219,6.238281 0,8.945312 -0.308593,0.457032 -0.1875,1.078125 0.269532,1.390625 0.457031,0.308594 1.078125,0.1875 1.390625,-0.269531 C 15.429688,11.902344 16,9.953125 16,8 16,6.046875 15.429688,4.097656 14.292969,2.40625 14.097656,2.121094 13.78125,1.96875 13.460938,1.96875 Z M 10.039062,3.988281 C 9.816406,3.980469 9.585938,4.046875 9.394531,4.191406 9.132812,4.390625 9,4.691406 9,4.996094 v 0.058594 c 0.011719,0.191406 0.074219,0.375 0.199219,0.535156 1.074219,1.429687 1.074219,3.390625 0,4.816406 -0.125,0.164062 -0.1875,0.347656 -0.199219,0.535156 v 0.0625 c 0,0.304688 0.132812,0.605469 0.394531,0.804688 0.441407,0.332031 1.066407,0.242187 1.398438,-0.199219 C 11.597656,10.542969 12,9.273438 12,8 12,6.726562 11.597656,5.457031 10.792969,4.386719 10.609375,4.140625 10.328125,4.003906 10.039062,3.988281 Z m 0,0"
     fill="#2e3436"
     id="path1"
     style="fill:#f9f9f9" />
  <path
     style="fill:#f9f9f9;stroke-width:0.0261866"
     d="M 6.7542874,14.95601 C 6.57802,14.908483 6.4163569,14.804334 6.2531069,14.633131 6.1734154,14.549557 5.4108795,13.694599 4.5585825,12.733224 L 3.0089516,10.98527 2.4275527,10.985072 C 1.7726354,10.984849 1.5981932,10.964157 1.3080966,10.852284 0.70371331,10.619209 0.24555383,10.106478 0.0731198,9.470207 0.02373817,9.2879919 0.01779271,9.1773253 0.00679586,8.2356792 -0.00706909,7.0484405 0.01555455,6.6662971 0.11788509,6.3592335 0.34109876,5.6894353 0.89754069,5.2011624 1.602824,5.0562126 1.7526813,5.0254138 1.9597689,5.01473 2.4068874,5.01473 H 3.0091087 L 4.6344511,3.1833663 C 5.5283894,2.1761163 6.3137637,1.3044962 6.3797274,1.2464327 6.5166492,1.1259094 6.7360738,1.0343699 6.8880526,1.0343699 h 0.1037641 v 6.9787234 6.9787237 l -0.05892,-0.0018 c -0.032406,-9.4e-4 -0.1127799,-0.01626 -0.1786093,-0.03401 z"
     id="path2" />
  <path
     style="fill:#f9f9f9;stroke-width:0.0261866"
     d="M 9.8245838,11.978527 C 9.4072577,11.8964 9.1038323,11.579033 9.0297819,11.147204 8.9816136,10.866308 9.0377999,10.680903 9.281072,10.31799 9.7239442,9.6573127 9.9464911,9.032943 10.001417,8.297015 10.070929,7.3656555 9.8322785,6.4979691 9.2821807,5.6820103 9.0377143,5.3193939 8.9814609,5.1345825 9.0297819,4.8527957 9.1051632,4.4132058 9.4034149,4.1046543 9.8350296,4.0197393 c 0.2795834,-0.055005 0.6144284,0.048452 0.8317544,0.2569861 0.143523,0.1377179 0.492946,0.6689449 0.662865,1.0077535 0.32634,0.6507033 0.522146,1.2899549 0.615209,2.0084835 0.04145,0.3200086 0.04145,1.0940666 0,1.4140752 -0.124071,0.9579431 -0.441159,1.8105204 -0.971432,2.6119574 -0.293433,0.443486 -0.484442,0.595985 -0.825442,0.659022 -0.1713086,0.03167 -0.1651179,0.03166 -0.3234002,5.1e-4 z"
     id="path3" />
</svg>
