<?xml version="1.0" encoding="UTF-8" standalone="no"?>
<svg
   height="16px"
   viewBox="0 0 16 16"
   width="16px"
   version="1.1"
   id="svg1"
   sodipodi:docname="hs-workspace-notempty.svg"
   inkscape:version="1.4 (e7c3feb100, 2024-10-09)"
   xmlns:inkscape="http://www.inkscape.org/namespaces/inkscape"
   xmlns:sodipodi="http://sodipodi.sourceforge.net/DTD/sodipodi-0.dtd"
   xmlns="http://www.w3.org/2000/svg"
   xmlns:svg="http://www.w3.org/2000/svg">
  <defs
     id="defs1" />
  <sodipodi:namedview
     id="namedview1"
     pagecolor="#ffffff"
     bordercolor="#000000"
     borderopacity="0.25"
     inkscape:showpageshadow="2"
     inkscape:pageopacity="0.0"
     inkscape:pagecheckerboard="0"
     inkscape:deskcolor="#d1d1d1"
     inkscape:zoom="43.25"
     inkscape:cx="8"
     inkscape:cy="8.0115607"
     inkscape:window-width="1292"
     inkscape:window-height="964"
     inkscape:window-x="0"
     inkscape:window-y="0"
     inkscape:window-maximized="1"
     inkscape:current-layer="svg1" />
  <path
     d="m 8 0 c -4.40625 0 -8 3.59375 -8 8 s 3.59375 8 8 8 s 8 -3.59375 8 -8 s -3.59375 -8 -8 -8 z m 0 2 c 3.320312 0 6 2.679688 6 6 s -2.679688 6 -6 6 s -6 -2.679688 -6 -6 s 2.679688 -6 6 -6 z m -0.007812 3 c -1.652344 0 -3 1.34375 -3 3 s 1.347656 3 3 3 c 1.65625 0 3 -1.34375 3 -3 s -1.34375 -3 -3 -3 z m 0 0"
     fill="#2e3436"
     id="path1"
     style="fill:#f9f9f9" />
</svg>
