<?xml version="1.0" encoding="UTF-8" standalone="no"?>
<svg
   height="16px"
   viewBox="0 0 16 16"
   width="16px"
   version="1.1"
   id="svg2"
   sodipodi:docname="hs-network-wired-disabled.svg"
   inkscape:version="1.4 (e7c3feb100, 2024-10-09)"
   xmlns:inkscape="http://www.inkscape.org/namespaces/inkscape"
   xmlns:sodipodi="http://sodipodi.sourceforge.net/DTD/sodipodi-0.dtd"
   xmlns="http://www.w3.org/2000/svg"
   xmlns:svg="http://www.w3.org/2000/svg">
  <defs
     id="defs2" />
  <sodipodi:namedview
     id="namedview2"
     pagecolor="#ffffff"
     bordercolor="#000000"
     borderopacity="0.25"
     inkscape:showpageshadow="2"
     inkscape:pageopacity="0.0"
     inkscape:pagecheckerboard="0"
     inkscape:deskcolor="#d1d1d1"
     inkscape:zoom="28.770407"
     inkscape:cx="4.6749426"
     inkscape:cy="9.9929069"
     inkscape:window-width="1291"
     inkscape:window-height="838"
     inkscape:window-x="0"
     inkscape:window-y="0"
     inkscape:window-maximized="1"
     inkscape:current-layer="svg2" />
  <path
     d="M 6.265625,8.9902344 4.2988281,7.0234375 H 3.5527344 0.05078125 v 0.984375 0.9824219 H 1.046875 2.0429688 v 1.0195316 1.017578 l -0.6347657,0.0078 c -0.6275739,0.0076 -0.63212475,0.0089 -0.77148435,0.07422 C 0.47105555,11.187021 0.274959,11.360529 0.1875,11.509766 0.0505491,11.743454 0.04906062,11.763364 0.05664062,13.578125 l 0.0078125,1.667969 0.078125,0.166015 c 0.1286015,0.271479 0.3910837,0.491351 0.66406251,0.556641 0.0516038,0.01237 1.05589467,0.01978 2.27929687,0.01758 l 2.1875,-0.0039 0.1640625,-0.07813 c 0.2285019,-0.108254 0.3718695,-0.247006 0.4824219,-0.470703 l 0.091797,-0.185547 v -1.746094 -1.746094 l -0.066406,-0.142578 c -0.093097,-0.198691 -0.3049489,-0.41261 -0.4941406,-0.5 l -0.1523438,-0.07031 -0.6328125,-0.0078 -0.6328125,-0.0078 V 10.009766 8.9902344 Z"
     style="fill:#2e3436;stroke-width:0.0245776;fill-opacity:1"
     id="path6" />
  <path
     d="M 5.8144531,0.03125 5.671875,0.08984375 c -0.3115267,0.125688 -0.5568889,0.4475639 -0.6074219,0.796875 -0.0311,0.21497765 -0.029486,3.06306195 0.00195,3.26171875 0.05132,0.3242847 0.2587134,0.6089094 0.5507813,0.7519531 l 0.1484375,0.072266 0.6445312,0.00781 0.6464844,0.00781 V 6.0058594 7.0234375 H 6.4199219 c 0.6042447,0.6046741 1.4811246,1.4826353 1.9648437,1.9667969 h 1.6445314 5.998047 V 8.0078125 7.0234375 H 12.523438 9.0214844 V 6.0058594 4.9882812 l 0.6464844,-0.00781 0.6445312,-0.00781 0.146484,-0.072266 c 0.292068,-0.1430437 0.501415,-0.4276684 0.552735,-0.7519531 0.03147,-0.1986568 0.03305,-3.0467411 0.002,-3.26171875 -0.05053,-0.3493111 -0.295896,-0.671187 -0.607422,-0.796875 L 10.263672,0.03125 H 8.0390625 Z"
     style="fill:#2e3436;stroke-width:0.0245776"
     id="path4" />
  <path
     d="M 1.4589556,0.47519699 0.39645564,1.537697 14.396457,15.537698 l 1.0625,-1.0625 C 13.546221,12.576844 12.885481,11.901722 1.4589556,0.47519699 Z"
     fill="#2e3436"
     id="path1-6"
     style="fill:#2e3436;fill-opacity:1"
     sodipodi:nodetypes="ccccc" />
</svg>
