<?xml version="1.0" encoding="UTF-8" standalone="no"?>
<svg
   height="16px"
   viewBox="0 0 16 16"
   width="16px"
   version="1.1"
   id="svg2"
   sodipodi:docname="hs-network-wireless-unavailable.svg"
   inkscape:version="1.4 (e7c3feb100, 2024-10-09)"
   xmlns:inkscape="http://www.inkscape.org/namespaces/inkscape"
   xmlns:sodipodi="http://sodipodi.sourceforge.net/DTD/sodipodi-0.dtd"
   xmlns="http://www.w3.org/2000/svg"
   xmlns:svg="http://www.w3.org/2000/svg">
  <defs
     id="defs2" />
  <sodipodi:namedview
     id="namedview2"
     pagecolor="#ffffff"
     bordercolor="#000000"
     borderopacity="0.25"
     inkscape:showpageshadow="2"
     inkscape:pageopacity="0.0"
     inkscape:pagecheckerboard="0"
     inkscape:deskcolor="#d1d1d1"
     inkscape:zoom="40.6875"
     inkscape:cx="7.9877112"
     inkscape:cy="8"
     inkscape:window-width="1241"
     inkscape:window-height="838"
     inkscape:window-x="0"
     inkscape:window-y="0"
     inkscape:window-maximized="1"
     inkscape:current-layer="svg2" />
  <path
     style="fill:#2e3436;fill-opacity:1;stroke-width:0.0245776"
     d="M 3.7059549,9.981089 C 3.4406829,9.8946401 3.1795704,9.6548279 3.0808571,9.406984 3.0363751,9.2953008 3.02444,9.2167735 3.0238224,9.031724 3.0231058,8.8169794 3.0295618,8.7844596 3.1021996,8.6369273 3.1886211,8.4613992 3.7580422,7.8086779 4.0937388,7.5003366 5.4927096,6.2153654 7.5648211,5.7126431 9.4765759,6.1943877 c 0.9011011,0.2270691 1.7877211,0.7055531 2.4471691,1.3206684 0.239086,0.2230131 0.859459,0.9147966 0.933189,1.0406082 0.206948,0.3531303 0.15398,0.8273226 -0.127175,1.138528 L 12.636818,9.7970667 12.438225,9.6023186 C 12.136726,9.3066576 11.92033,9.1767081 11.551502,9.0698259 11.314799,9.0012321 10.953562,8.9699615 10.764977,9.0017403 10.643203,9.0222604 10.640975,9.0214543 10.519201,8.9128243 10.051103,8.4952506 9.3170885,8.1897055 8.5593553,8.0970069 8.2044908,8.053594 7.4903845,8.0784346 7.1550582,8.1458561 6.4765336,8.2822822 5.8894914,8.5551983 5.4528959,8.937192 5.3699611,9.0097548 5.1636249,9.2193423 4.9943711,9.4029419 4.6286206,9.7996935 4.5644615,9.8562487 4.3870968,9.9382449 4.2226045,10.01429 3.8749378,10.036159 3.7059549,9.981089 Z"
     id="path5" />
  <path
     style="fill:#2e3436;fill-opacity:1;stroke-width:0.0245776"
     d="M 0.79988453,6.9668525 C 0.29729131,6.8619937 -0.05583993,6.3486629 0.02997624,5.8476714 0.07766943,5.5692407 0.13188773,5.4901235 0.57965695,5.0455599 1.4344473,4.1968892 2.2796265,3.5846621 3.2688172,3.0975981 6.8857231,1.3166832 11.346274,1.7457751 14.446204,4.1728301 15.028439,4.6286845 15.787573,5.3664963 15.886842,5.5730042 16.225781,6.2780977 15.613337,7.1044321 14.850998,6.970606 14.577849,6.9226556 14.441524,6.8316977 13.962644,6.3778866 13.720746,6.1486518 13.411069,5.8736691 13.274472,5.7668136 12.082552,4.8344133 10.617685,4.2545373 8.9831029,4.0680501 8.8546851,4.0533991 8.5228879,4.034738 8.2457757,4.026581 6.1767167,3.9656764 4.1810925,4.602912 2.6789555,5.8041583 2.5437788,5.9122578 2.2464688,6.176812 2.0182666,6.3920565 1.7900644,6.607301 1.5743962,6.8028198 1.5390039,6.826543 1.356883,6.9486167 1.0194778,7.0126675 0.79988453,6.9668525 Z"
     id="path6" />
  <path
     style="fill:#2e3436;fill-opacity:1;stroke-width:0.0245776"
     d="M 7.7419355,13.971105 C 7.2613998,13.897123 6.8845932,13.697399 6.5455003,13.336941 6.0493186,12.809497 5.8860123,12.054538 6.1195658,11.367862 6.3313738,10.745121 6.8339867,10.268513 7.472973,10.084479 7.6338194,10.038153 7.726638,10.02833 8,10.028701 c 0.3930923,5.34e-4 0.5440575,0.03482 0.8801086,0.199879 0.1797198,0.08827 0.2254029,0.120956 0.2129529,0.152347 -0.048118,0.121322 -0.084558,0.392027 -0.084782,0.629826 -5.542e-4,0.588659 0.1916781,1.033575 0.6368959,1.474077 0.1089784,0.107825 0.1981427,0.211205 0.1981427,0.229734 0,0.01853 -0.046497,0.123859 -0.1033276,0.234064 -0.081429,0.157907 -0.1556552,0.252695 -0.3502304,0.447248 -0.2114568,0.211433 -0.2804227,0.263542 -0.4803898,0.362976 -0.3760044,0.186969 -0.8141934,0.266637 -1.1674348,0.212253 z"
     id="path7" />
  <path
     style="fill:#ff0000;fill-opacity:1;stroke-width:0.0245776"
     d="m 10.752688,15.954126 c -0.289643,-0.08474 -0.518899,-0.279593 -0.644324,-0.547619 -0.1382846,-0.295508 -0.1168941,-0.648808 0.05558,-0.918028 0.03897,-0.06083 0.375398,-0.414671 0.747617,-0.786314 0.37222,-0.371644 0.676763,-0.686928 0.676763,-0.700632 0,-0.0137 -0.29944,-0.323456 -0.665422,-0.68834 -0.365982,-0.364883 -0.697039,-0.70858 -0.735683,-0.763772 -0.4294693,-0.613377 0.0024,-1.485679 0.756692,-1.528458 0.218989,-0.01242 0.435045,0.04691 0.605508,0.166258 0.05519,0.03864 0.398889,0.369701 0.763772,0.735683 0.364884,0.365982 0.674636,0.665422 0.68834,0.665422 0.0137,0 0.328988,-0.304543 0.700632,-0.676763 0.371643,-0.372219 0.725485,-0.708647 0.786314,-0.747617 0.487618,-0.3123934 1.15145,-0.107201 1.408464,0.43536 0.0713,0.15051 0.07844,0.187039 0.078,0.399158 -4.16e-4,0.204325 -0.0094,0.25344 -0.07206,0.393241 -0.0642,0.143278 -0.144633,0.233359 -0.779863,0.873419 -0.389554,0.392516 -0.708279,0.723902 -0.708279,0.736412 0,0.01251 0.318725,0.343896 0.708279,0.736412 0.791325,0.797342 0.828561,0.849039 0.85715,1.190049 0.04881,0.582203 -0.469976,1.100989 -1.052179,1.052179 -0.34101,-0.02859 -0.392707,-0.06583 -1.190049,-0.85715 -0.392516,-0.389554 -0.723901,-0.708279 -0.736412,-0.708279 -0.01251,0 -0.343896,0.318725 -0.736412,0.708279 -0.639717,0.634891 -0.729839,0.715368 -0.869762,0.776688 -0.185965,0.0815 -0.468379,0.105409 -0.642674,0.05441 z"
     id="path8" />
</svg>
