<?xml version="1.0" encoding="UTF-8" standalone="no"?>
<svg
   height="16px"
   viewBox="0 0 16 16"
   width="16px"
   version="1.1"
   id="svg2"
   sodipodi:docname="hs-network-wired-unavailable.svg"
   inkscape:version="1.4 (e7c3feb100, 2024-10-09)"
   xmlns:inkscape="http://www.inkscape.org/namespaces/inkscape"
   xmlns:sodipodi="http://sodipodi.sourceforge.net/DTD/sodipodi-0.dtd"
   xmlns="http://www.w3.org/2000/svg"
   xmlns:svg="http://www.w3.org/2000/svg">
  <defs
     id="defs2" />
  <sodipodi:namedview
     id="namedview2"
     pagecolor="#ffffff"
     bordercolor="#000000"
     borderopacity="0.25"
     inkscape:showpageshadow="2"
     inkscape:pageopacity="0.0"
     inkscape:pagecheckerboard="0"
     inkscape:deskcolor="#d1d1d1"
     inkscape:zoom="28.770407"
     inkscape:cx="6.0131231"
     inkscape:cy="10.479518"
     inkscape:window-width="1291"
     inkscape:window-height="946"
     inkscape:window-x="0"
     inkscape:window-y="0"
     inkscape:window-maximized="1"
     inkscape:current-layer="svg2" />
  <g
     id="g1">
    <path
       style="fill:#2e3436;fill-opacity:1;stroke-width:0.0245776"
       d="m 0.80692378,15.96876 c -0.2729788,-0.06529 -0.5362905,-0.286104 -0.664892,-0.557583 l -0.078479,-0.165672 -0.00697,-1.667473 c -0.00758,-1.814761 -0.00639,-1.83362 0.1305609,-2.067308 0.087459,-0.149237 0.2829547,-0.324468 0.4486179,-0.402114 0.1393596,-0.06532 0.1458348,-0.06593 0.77340872,-0.07353 l 0.6328725,-0.0077 V 10.008972 8.990513 H 1.0466553 0.05126358 V 8.00741 7.0243076 H 3.5535677 7.0558719 V 6.0058262 4.9873449 L 6.4107106,4.9797126 5.7655493,4.9720802 5.6180839,4.8998573 C 5.326016,4.7568136 5.1174847,4.4730162 5.0661645,4.1487315 5.0347256,3.9500747 5.0323917,1.1026255 5.0634914,0.88764782 5.1140244,0.53833672 5.3602093,0.21535786 5.671736,0.08966986 l 0.1429684,-0.0576818 h 2.2242707 2.2242699 l 0.142969,0.057682 c 0.311526,0.125688 0.557711,0.44866686 0.608244,0.79797796 0.0311,0.21497768 0.02877,3.06242688 -0.0027,3.26108368 -0.05132,0.3242847 -0.259851,0.6080821 -0.551919,0.7511258 l -0.147466,0.072223 -0.6451609,0.00763 -0.645161,0.00763 V 6.0058216 7.024303 h 3.5023039 3.502304 V 8.00741 8.990513 H 10.029758 4.0328304 v 1.018805 1.018806 l 0.6328725,0.0073 0.6328725,0.0073 0.1526661,0.07052 c 0.1891917,0.08739 0.4004158,0.301459 0.4935125,0.50015 l 0.066571,0.142079 v 1.746275 1.746275 l -0.09179,0.185732 c -0.1105524,0.223697 -0.2528664,0.36303 -0.4813683,0.471284 l -0.1641686,0.07778 -2.187404,0.004 c -1.2234022,0.0022 -2.22806622,-0.0057 -2.27967002,-0.01807 z"
       id="path3" />
  </g>
  <path
     style="fill:#ff0000;fill-opacity:1;stroke-width:0.0245776"
     d="m 10.743566,15.979719 c -0.289643,-0.08474 -0.518899,-0.279593 -0.644324,-0.547619 -0.1382844,-0.295508 -0.1168939,-0.648808 0.05558,-0.918028 0.03897,-0.06083 0.375398,-0.414671 0.747617,-0.786314 0.37222,-0.371644 0.676763,-0.686928 0.676763,-0.700632 0,-0.0137 -0.29944,-0.323456 -0.665422,-0.68834 -0.365982,-0.364883 -0.697039,-0.70858 -0.735683,-0.763772 -0.4294691,-0.613377 0.0024,-1.485679 0.756692,-1.528458 0.218989,-0.01242 0.435045,0.04691 0.605508,0.166258 0.05519,0.03864 0.398889,0.369701 0.763772,0.735683 0.364884,0.365982 0.674636,0.665422 0.68834,0.665422 0.0137,0 0.328988,-0.304543 0.700632,-0.676763 0.371643,-0.372219 0.725485,-0.708647 0.786314,-0.747617 0.487618,-0.3123933 1.15145,-0.107201 1.408464,0.43536 0.0713,0.15051 0.07844,0.187039 0.078,0.399158 -4.16e-4,0.204325 -0.0094,0.25344 -0.07206,0.393241 -0.0642,0.143278 -0.144633,0.233359 -0.779863,0.873419 -0.389554,0.392516 -0.708279,0.723902 -0.708279,0.736412 0,0.01251 0.318725,0.343896 0.708279,0.736412 0.791325,0.797342 0.828561,0.849039 0.85715,1.190049 0.04881,0.582203 -0.469976,1.100989 -1.052179,1.052179 -0.34101,-0.02859 -0.392707,-0.06583 -1.190049,-0.85715 -0.392516,-0.389554 -0.723901,-0.708279 -0.736412,-0.708279 -0.01251,0 -0.343896,0.318725 -0.736412,0.708279 -0.639717,0.634891 -0.729839,0.715368 -0.869762,0.776688 -0.185965,0.0815 -0.468379,0.105409 -0.642674,0.05441 z"
     id="path8" />
</svg>
